<svg width="163" height="37" viewBox="0 0 163 37" fill="none" xmlns="http://www.w3.org/2000/svg">
<path d="M153.487 11.7272H148.817V25.2727H153.487V18.2727C153.487 16.5454 154.015 15.0909 155.866 15.0909C158.156 15.0909 157.98 17.3636 157.98 18.6363V25.1818H162.65V16.8181C162.65 13.5454 161.24 11.1818 157.716 11.1818C155.866 11.1818 154.544 11.7272 153.487 13.3636V11.7272Z" fill="#36393A"/>
<path d="M137.538 11.7272H132.869V25.2727H137.538V18.2727C137.538 16.5454 138.067 15.0909 140.005 15.0909C142.296 15.0909 142.12 17.3636 142.12 18.6363V25.1818H146.79V16.8181C146.79 13.5454 145.38 11.1818 141.856 11.1818C140.005 11.1818 138.684 11.7272 137.626 13.3636H137.538V11.7272Z" fill="#36393A"/>
<path d="M131.018 11.7274H126.349V13.0001C125.379 11.8183 123.793 11.2728 122.296 11.2728C118.419 11.2728 115.688 14.5456 115.688 18.4546C115.688 22.3637 118.419 25.7274 122.296 25.7274C123.793 25.7274 125.379 25.091 126.26 23.7274H126.349V25.1819H131.018V11.7274ZM123.617 15.4546C125.467 15.4546 126.613 16.8183 126.613 18.4546C126.613 20.1819 125.467 21.5456 123.617 21.5456C121.679 21.5456 120.622 20.2728 120.622 18.4546C120.622 16.8183 121.767 15.4546 123.617 15.4546Z" fill="#36393A"/>
<path d="M97.1844 11.7273H92.5146V25.2727H97.1844V18.8182C97.1844 17.3636 97.1844 15 99.2109 15C101.325 15 101.325 17.3636 101.325 18.8182V25.2727H105.995V18.8182C105.995 17.2727 106.083 15.0909 108.286 15.0909C110.224 15.0909 110.224 17.4546 110.224 18.8182V25.2727H114.894V16.7273C114.894 13.5455 113.749 11.3636 110.401 11.3636C108.638 11.3636 106.876 12.2727 105.995 14C105.026 12.1818 103.44 11.3636 101.502 11.3636C99.8276 11.3636 98.4179 12 97.3606 13.4546H97.2725V11.7273H97.1844Z" fill="#36393A"/>
<path d="M76.7417 11.7273V19.9091C76.7417 24.3637 79.8255 25.8182 83.7903 25.8182C87.7552 25.8182 90.839 24.3637 90.839 19.9091V11.7273H86.1693V19C86.1693 20.7273 85.7287 21.9091 83.8785 21.9091C81.9401 21.9091 81.5876 20.7273 81.5876 19V11.7273H76.7417Z" fill="#36393A"/>
<path d="M74.6257 11.7274H69.956V13.0001C68.9868 11.8183 67.4009 11.2728 65.903 11.2728C62.0263 11.2728 59.2949 14.5456 59.2949 18.4546C59.2949 22.3637 62.0263 25.7274 65.903 25.7274C67.4009 25.7274 68.9868 25.091 69.8679 23.7274H69.956V25.1819H74.6257V11.7274ZM67.1365 15.4546C69.0749 15.4546 70.1322 16.8183 70.1322 18.4546C70.1322 20.1819 68.9868 21.5456 67.1365 21.5456C65.2863 21.5456 64.1409 20.2728 64.1409 18.4546C64.1409 16.8183 65.2863 15.4546 67.1365 15.4546Z" fill="#36393A"/>
<path d="M54.3636 11.7272H49.6938V25.2727H54.3636V19.8181C54.3636 17.4545 54.9803 15.7272 57.5355 15.7272C58.2403 15.7272 58.9452 15.8181 59.562 16.1818V11.5454H58.6809C56.8306 11.5454 55.3328 12.2727 54.4517 13.909H54.3636V11.7272Z" fill="#36393A"/>
<path d="M46.7872 15.7273H49.4304V11.7273H46.7872V7.63635H42.2056V11.7273H40.6196V15.7273H42.2056V25.2727H46.7872V15.7273Z" fill="#36393A"/>
<path d="M39.8269 12.1819C38.4172 11.5456 37.0075 11.2728 35.5096 11.2728C32.6021 11.2728 29.6945 12.7274 29.6945 16.091C29.6945 18.5456 31.1923 19.2728 32.6021 19.7274C34.0999 20.091 35.5096 20.1819 35.5096 21.2728C35.5096 22.0001 34.6286 22.2728 34.0118 22.2728C32.8664 22.2728 31.2804 21.5456 30.3113 20.8183L28.6372 24.1819C30.2232 25.1819 32.0734 25.7274 33.9237 25.7274C37.0075 25.7274 40.0913 24.2728 40.0913 20.6365C40.0913 18.1819 38.4172 17.091 36.3026 16.6365C35.6859 16.5456 34.188 16.3637 34.188 15.4546C34.188 14.8183 35.1572 14.5456 35.6859 14.5456C36.4788 14.5456 37.448 14.8183 38.1529 15.1819L39.8269 12.1819Z" fill="#36393A"/>
<path d="M25.0246 0C18.2402 4.63636 11.4559 9.36364 4.6716 14C1.67592 16.3636 1.76403 20 3.79052 23L24.9365 8.36364L25.0246 0Z" fill="#36393A"/>
<path d="M0 36.3636C6.78432 31.7273 13.5686 27 20.353 22.3636C23.3486 20 23.2605 16.3636 21.2341 13.3636L0.0881081 28L0 36.3636Z" fill="#36393A"/>
</svg>
