<svg width="184" height="50" viewBox="0 0 184 50" fill="none" xmlns="http://www.w3.org/2000/svg">
<path d="M49.8274 24.9076C49.8274 38.6628 38.6731 49.8135 24.9138 49.8135C11.1542 49.8135 0 38.6628 0 24.9076C0 11.1526 11.1542 0.00185204 24.9138 0.00185204C38.6731 0.00185204 49.8274 11.1526 49.8274 24.9076Z" fill="url(#paint0_linear_112_565)"/>
<path d="M158.089 40.7166V32.9289H160.131C160.754 32.1512 161.269 31.1886 161.678 30.0412C162.086 28.8941 162.388 27.5427 162.582 25.987C162.777 24.4315 162.874 22.6716 162.874 20.7077V15.3408H177.433V32.9289H180.351V40.7166H177.025V35.904H161.415V40.7166H158.089ZM163.924 32.9289H173.669V18.3159H166.346V21.0577C166.346 22.9244 166.258 24.5967 166.083 26.0744C165.908 27.5329 165.636 28.8261 165.266 29.9538C164.916 31.0815 164.469 32.0732 163.924 32.9289Z" fill="#24272B"/>
<path d="M138.102 35.9047V15.3415H141.574V30.6836H140.903L152.632 15.3415H155.433V35.9047H151.961V20.5334H152.603L140.874 35.9047H138.102ZM146.738 13.7373C145.707 13.7373 144.793 13.572 143.996 13.2414C143.218 12.8914 142.566 12.415 142.041 11.8122C141.535 11.19 141.175 10.4705 140.961 9.65384L142.829 9.01213C143.218 9.96495 143.723 10.6553 144.346 11.0831C144.968 11.4914 145.776 11.6956 146.768 11.6956C147.779 11.6956 148.586 11.4817 149.189 11.0539C149.812 10.6261 150.337 9.95524 150.765 9.04131L152.574 9.65384C152.126 10.9955 151.387 12.0164 150.356 12.7164C149.345 13.397 148.139 13.7373 146.738 13.7373Z" fill="#24272B"/>
<path d="M120.69 35.904V15.3408H134.374V18.3159H124.279V23.9744H133.732V26.9495H124.279V32.9289H134.374V35.904H120.69Z" fill="#24272B"/>
<path d="M101.658 35.904V15.3408H110.586C112.104 15.3408 113.387 15.5936 114.438 16.0992C115.488 16.6048 116.286 17.334 116.83 18.2868C117.375 19.2396 117.647 20.3965 117.647 21.7577C117.647 23.0994 117.375 24.2564 116.83 25.2287C116.286 26.1815 115.488 26.9204 114.438 27.4455C113.387 27.9509 112.104 28.2038 110.586 28.2038H105.393V35.904H101.658ZM105.393 25.2578H110.003C111.325 25.2578 112.327 24.9661 113.008 24.3827C113.689 23.7801 114.029 22.905 114.029 21.7577C114.029 20.6104 113.689 19.7451 113.008 19.1618C112.327 18.5784 111.325 18.2868 110.003 18.2868H105.393V25.2578Z" fill="#24272B"/>
<path d="M88.4953 35.904V18.4618H81.4346V15.3408H99.2907V18.4618H92.2299V35.904H88.4953Z" fill="#24272B"/>
<path d="M65.4413 36.1957C63.3016 36.1957 61.4636 35.768 59.9268 34.9123C58.4097 34.0374 57.2425 32.8123 56.4257 31.2372C55.6086 29.6429 55.2002 27.7663 55.2002 25.6078C55.2002 23.4495 55.6086 21.5828 56.4257 20.0077C57.2425 18.4327 58.4097 17.2174 59.9268 16.3618C61.4636 15.4868 63.3016 15.0492 65.4413 15.0492C66.8224 15.0492 68.1256 15.2631 69.3511 15.6909C70.5958 16.1187 71.617 16.7313 72.4146 17.5285L71.1891 20.5036C70.3137 19.7647 69.4192 19.2299 68.5049 18.8994C67.5906 18.5494 66.6083 18.3744 65.558 18.3744C63.4767 18.3744 61.8914 19.0063 60.8022 20.2703C59.713 21.5147 59.1683 23.294 59.1683 25.6078C59.1683 27.9218 59.713 29.7109 60.8022 30.9749C61.8914 32.2386 63.4767 32.8706 65.558 32.8706C66.6083 32.8706 67.5906 32.7054 68.5049 32.3749C69.4192 32.0249 70.3137 31.4803 71.1891 30.7415L72.4146 33.7166C71.617 34.4943 70.5958 35.1069 69.3511 35.554C68.1256 35.982 66.8224 36.1957 65.4413 36.1957Z" fill="#24272B"/>
<path d="M30.7266 40.7166V32.9289H32.7689C33.3914 32.1512 33.907 31.1886 34.3154 30.0412C34.7238 28.8941 35.0253 27.5427 35.2199 25.987C35.4143 24.4315 35.5117 22.6716 35.5117 20.7077V15.3408H50.0708V32.9289H52.9886V40.7166H49.6624V35.904H34.0527V40.7166H30.7266ZM36.5621 32.9289H46.3071V18.3159H38.9837V21.0577C38.9837 22.9244 38.8962 24.5967 38.721 26.0744C38.5461 27.5329 38.2737 28.8261 37.9042 29.9538C37.5541 31.0815 37.1065 32.0732 36.5621 32.9289Z" fill="#24272B"/>
<path d="M22.328 36.1957C20.1884 36.1957 18.3502 35.768 16.8136 34.9123C15.2964 34.0374 14.1293 32.8123 13.3123 31.2372C12.4954 29.6429 12.0869 27.7663 12.0869 25.6078C12.0869 23.4495 12.4954 21.5828 13.3123 20.0077C14.1293 18.4327 15.2964 17.2174 16.8136 16.3618C18.3502 15.4868 20.1884 15.0492 22.328 15.0492C23.7091 15.0492 25.0123 15.2631 26.2376 15.6909C27.4825 16.1187 28.5037 16.7313 29.3014 17.5285L28.0759 20.5036C27.2005 19.7647 26.3059 19.2299 25.3916 18.8994C24.4773 18.5494 23.4951 18.3744 22.4447 18.3744C20.3634 18.3744 18.7781 19.0063 17.6889 20.2703C16.5996 21.5147 16.055 23.294 16.055 25.6078C16.055 27.9218 16.5996 29.7109 17.6889 30.9749C18.7781 32.2386 20.3634 32.8706 22.4447 32.8706C23.4951 32.8706 24.4773 32.7054 25.3916 32.3749C26.3059 32.0249 27.2005 31.4803 28.0759 30.7415L29.3014 33.7166C28.5037 34.4943 27.4825 35.1069 26.2376 35.554C25.0123 35.982 23.7091 36.1957 22.328 36.1957Z" fill="#24272B"/>
<defs>
<linearGradient id="paint0_linear_112_565" x1="41.1538" y1="2.78548" x2="-89.8192" y2="124.439" gradientUnits="userSpaceOnUse">
<stop stop-color="#BFDD73"/>
<stop offset="1" stop-color="#156898"/>
</linearGradient>
</defs>
</svg>
