<svg width="143" height="45" viewBox="0 0 143 45" fill="none" xmlns="http://www.w3.org/2000/svg">
<rect x="0.421875" width="142" height="36" rx="18" fill="white"/>
<path d="M0 17.555C0 29.8578 10.7628 40.0317 15.5267 43.9324L15.5286 43.934C16.2117 44.4933 16.5533 44.773 17.0624 44.9164C17.4585 45.0279 18.0411 45.0279 18.4372 44.9164C18.9468 44.7729 19.2893 44.4928 19.9737 43.9324C24.7376 40.0317 35.4999 29.8577 35.4999 17.5549C35.4999 12.8991 33.6299 8.43392 30.3011 5.14173C26.9724 1.84953 22.4577 0 17.7501 0C13.0425 0 8.52763 1.8495 5.19885 5.14169C1.87008 8.43388 0 12.8991 0 17.555Z" fill="url(#paint0_linear_88_8218)"/>
<path d="M112.195 28.2604V22.7655H113.641C114.082 22.2167 114.447 21.5375 114.736 20.728C115.025 19.9185 115.239 18.965 115.376 17.8673C115.514 16.7698 115.583 15.528 115.583 14.1423V10.3555H125.89V22.7655H127.956V28.2604H125.601V24.8647H114.55V28.2604H112.195ZM116.326 22.7655H123.225V12.4547H118.041V14.3892C118.041 15.7064 117.979 16.8863 117.855 17.929C117.731 18.9581 117.538 19.8705 117.277 20.6663C117.029 21.462 116.712 22.1617 116.326 22.7655Z" fill="#24272B"/>
<path d="M98.043 24.8653V10.3561H100.501V21.1814H100.026L108.329 10.3561H110.313V24.8653H107.854V14.0194H108.309L100.005 24.8653H98.043ZM104.157 9.22418C103.427 9.22418 102.78 9.10755 102.215 8.87431C101.665 8.62735 101.203 8.29119 100.832 7.86586C100.473 7.42682 100.219 6.91916 100.067 6.34292L101.389 5.89014C101.665 6.56244 102.023 7.04951 102.463 7.35136C102.904 7.63949 103.475 7.78355 104.178 7.78355C104.894 7.78355 105.465 7.63263 105.892 7.33078C106.333 7.02893 106.705 6.55558 107.008 5.91072L108.288 6.34292C107.972 7.28962 107.448 8.00994 106.718 8.50387C106.002 8.98407 105.149 9.22418 104.157 9.22418Z" fill="#24272B"/>
<path d="M85.7188 24.8647V10.3555H95.4063V12.4547H88.2595V16.4473H94.9519V18.5465H88.2595V22.7655H95.4063V24.8647H85.7188Z" fill="#24272B"/>
<path d="M72.2422 24.8647V10.3555H78.5629C79.6371 10.3555 80.5458 10.5338 81.2896 10.8906C82.0331 11.2473 82.5977 11.7618 82.9833 12.4341C83.3688 13.1064 83.5616 13.9227 83.5616 14.8832C83.5616 15.8299 83.3688 16.6462 82.9833 17.3323C82.5977 18.0046 82.0331 18.5259 81.2896 18.8964C80.5458 19.2531 79.6371 19.4315 78.5629 19.4315H74.8861V24.8647H72.2422ZM74.8861 17.3528H78.1498C79.0862 17.3528 79.7953 17.147 80.2773 16.7353C80.7593 16.3101 81.0002 15.6927 81.0002 14.8832C81.0002 14.0737 80.7593 13.4631 80.2773 13.0515C79.7953 12.6399 79.0862 12.4341 78.1498 12.4341H74.8861V17.3528Z" fill="#24272B"/>
<path d="M62.9245 24.8647V12.5576H57.9258V10.3555H70.5671V12.5576H65.5684V24.8647H62.9245Z" fill="#24272B"/>
<path d="M46.6018 25.0707C45.0869 25.0707 43.7857 24.7689 42.6978 24.1651C41.6238 23.5478 40.7974 22.6834 40.2192 21.572C39.6407 20.4471 39.3516 19.123 39.3516 17.6C39.3516 16.0771 39.6407 14.7599 40.2192 13.6486C40.7974 12.5372 41.6238 11.6797 42.6978 11.076C43.7857 10.4586 45.0869 10.1499 46.6018 10.1499C47.5795 10.1499 48.5021 10.3008 49.3697 10.6027C50.2509 10.9045 50.9739 11.3367 51.5386 11.8992L50.671 13.9985C50.0512 13.4771 49.4179 13.0998 48.7706 12.8665C48.1234 12.6196 47.428 12.4961 46.6844 12.4961C45.211 12.4961 44.0886 12.942 43.3175 13.8338C42.5464 14.7119 42.1608 15.9673 42.1608 17.6C42.1608 19.2327 42.5464 20.4951 43.3175 21.3869C44.0886 22.2786 45.211 22.7245 46.6844 22.7245C47.428 22.7245 48.1234 22.608 48.7706 22.3747C49.4179 22.1278 50.0512 21.7436 50.671 21.2222L51.5386 23.3214C50.9739 23.8702 50.2509 24.3024 49.3697 24.6179C48.5021 24.9199 47.5795 25.0707 46.6018 25.0707Z" fill="#24272B"/>
<path d="M22.0234 28.2604V22.7655H23.4693C23.91 22.2167 24.275 21.5375 24.5641 20.728C24.8533 19.9185 25.0667 18.965 25.2045 17.8673C25.3421 16.7698 25.4111 15.528 25.4111 14.1423V10.3555H35.7183V22.7655H37.7839V28.2604H35.4291V24.8647H24.3782V28.2604H22.0234ZM26.1547 22.7655H33.0537V12.4547H27.8691V14.3892C27.8691 15.7064 27.8072 16.8863 27.6831 17.929C27.5593 18.9581 27.3665 19.8705 27.1049 20.6663C26.857 21.462 26.5402 22.1617 26.1547 22.7655Z" fill="#24272B"/>
<path d="M16.0822 25.0707C14.5675 25.0707 13.2662 24.7689 12.1783 24.1651C11.1042 23.5478 10.2779 22.6834 9.69958 21.572C9.12121 20.4471 8.83203 19.123 8.83203 17.6C8.83203 16.0771 9.12121 14.7599 9.69958 13.6486C10.2779 12.5372 11.1042 11.6797 12.1783 11.076C13.2662 10.4586 14.5675 10.1499 16.0822 10.1499C17.06 10.1499 17.9826 10.3008 18.85 10.6027C19.7314 10.9045 20.4543 11.3367 21.019 11.8992L20.1514 13.9985C19.5317 13.4771 18.8984 13.0998 18.2511 12.8665C17.6038 12.6196 16.9085 12.4961 16.1648 12.4961C14.6914 12.4961 13.5691 12.942 12.798 13.8338C12.0268 14.7119 11.6412 15.9673 11.6412 17.6C11.6412 19.2327 12.0268 20.4951 12.798 21.3869C13.5691 22.2786 14.6914 22.7245 16.1648 22.7245C16.9085 22.7245 17.6038 22.608 18.2511 22.3747C18.8984 22.1278 19.5317 21.7436 20.1514 21.2222L21.019 23.3214C20.4543 23.8702 19.7314 24.3024 18.85 24.6179C17.9826 24.9199 17.06 25.0707 16.0822 25.0707Z" fill="#24272B"/>
<defs>
<linearGradient id="paint0_linear_88_8218" x1="29.3203" y1="2.51474" x2="-83.7994" y2="85.3774" gradientUnits="userSpaceOnUse">
<stop stop-color="#BFDD73"/>
<stop offset="1" stop-color="#156898"/>
</linearGradient>
</defs>
</svg>
