<svg width="244" height="60" viewBox="0 0 244 60" fill="none" xmlns="http://www.w3.org/2000/svg">
<g clip-path="url(#clip0_112_16)">
<path d="M230.285 19.6363H223.294V39.9545H230.285V29.4545C230.285 26.8636 231.076 24.6818 233.846 24.6818C237.275 24.6818 237.011 28.0908 237.011 29.9999V39.8181H244.001V27.2727C244.001 22.3636 241.891 18.8181 236.616 18.8181C233.846 18.8181 231.867 19.6363 230.285 22.0908V19.6363Z" fill="white"/>
<path d="M206.412 19.6363H199.421V39.9545H206.412V29.4545C206.412 26.8636 207.203 24.6818 210.105 24.6818C213.534 24.6818 213.27 28.0908 213.27 29.9999V39.8181H220.26V27.2727C220.26 22.3636 218.15 18.8181 212.874 18.8181C210.105 18.8181 208.126 19.6363 206.544 22.0908H206.412V19.6363Z" fill="white"/>
<path d="M196.651 19.6364H189.661V21.5455C188.21 19.7728 185.836 18.9546 183.594 18.9546C177.791 18.9546 173.702 23.8637 173.702 29.7273C173.702 35.591 177.791 40.6364 183.594 40.6364C185.836 40.6364 188.21 39.6819 189.529 37.6364H189.661V39.8182H196.651V19.6364ZM185.572 25.2273C188.342 25.2273 190.057 27.2728 190.057 29.7273C190.057 32.3182 188.342 34.3637 185.572 34.3637C182.671 34.3637 181.088 32.4546 181.088 29.7273C181.088 27.2728 182.803 25.2273 185.572 25.2273Z" fill="white"/>
<path d="M146.004 19.6363H139.014V39.9545H146.004V30.2726C146.004 28.0908 146.004 24.5454 149.038 24.5454C152.203 24.5454 152.203 28.0908 152.203 30.2726V39.9545H159.194V30.2726C159.194 27.9545 159.326 24.6817 162.623 24.6817C165.524 24.6817 165.524 28.2272 165.524 30.2726V39.9545H172.515V27.1363C172.515 22.3635 170.8 19.0908 165.788 19.0908C163.15 19.0908 160.513 20.4545 159.194 23.0454C157.743 20.3181 155.369 19.0908 152.467 19.0908C149.961 19.0908 147.851 20.0454 146.268 22.2272H146.136V19.6363H146.004Z" fill="white"/>
<path d="M115.403 19.6363V31.909C115.403 38.5909 120.02 40.7727 125.955 40.7727C131.89 40.7727 136.506 38.5909 136.506 31.909V19.6363H129.516V30.5454C129.516 33.1363 128.856 34.909 126.087 34.909C123.185 34.909 122.657 33.1363 122.657 30.5454V19.6363H115.403Z" fill="white"/>
<path d="M112.235 19.6364H105.245V21.5455C103.794 19.7728 101.42 18.9546 99.178 18.9546C93.3748 18.9546 89.2861 23.8637 89.2861 29.7273C89.2861 35.591 93.3748 40.6364 99.178 40.6364C101.42 40.6364 103.794 39.6819 105.113 37.6364H105.245V39.8182H112.235V19.6364ZM101.025 25.2273C103.926 25.2273 105.509 27.2728 105.509 29.7273C105.509 32.3182 103.794 34.3637 101.025 34.3637C98.2548 34.3637 96.5402 32.4546 96.5402 29.7273C96.5402 27.2728 98.2548 25.2273 101.025 25.2273Z" fill="white"/>
<path d="M81.9043 19.6363H74.9141V39.9544H81.9043V31.7726C81.9043 28.2272 82.8276 25.6363 86.6524 25.6363C87.7076 25.6363 88.7627 25.7726 89.686 26.3181V19.3635H88.367C85.5973 19.3635 83.3551 20.4544 82.0362 22.909H81.9043V19.6363Z" fill="white"/>
<path d="M70.563 25.6364H74.5198V19.6364H70.563V13.5H63.7046V19.6364H61.3306V25.6364H63.7046V39.9545H70.563V25.6364Z" fill="white"/>
<path d="M60.1443 20.3182C58.034 19.3637 55.9238 18.9546 53.6816 18.9546C49.3292 18.9546 44.9767 21.1364 44.9767 26.1819C44.9767 29.8637 47.2189 30.9546 49.3292 31.6364C51.5713 32.1819 53.6816 32.3182 53.6816 33.9546C53.6816 35.0455 52.3627 35.4546 51.4394 35.4546C49.7249 35.4546 47.3508 34.3637 45.9 33.2728L43.394 38.3182C45.7681 39.8182 48.5378 40.6364 51.3076 40.6364C55.9238 40.6364 60.54 38.4546 60.54 33C60.54 29.3182 58.034 27.6819 54.8686 27C53.9454 26.8637 51.7032 26.591 51.7032 25.2273C51.7032 24.2728 53.154 23.8637 53.9454 23.8637C55.1324 23.8637 56.5832 24.2728 57.6384 24.8182L60.1443 20.3182Z" fill="white"/>
<path d="M37.9858 2.04541C27.8301 8.99995 17.6745 16.0909 7.51879 23.0454C3.03446 26.5909 3.16636 32.0454 6.19987 36.5454L37.8539 14.5909L37.9858 2.04541Z" fill="white"/>
<path d="M0.525879 56.5909C10.6816 49.6363 20.8372 42.5454 30.9929 35.5909C35.4772 32.0454 35.3453 26.5909 32.3118 22.0909L0.657771 44.0454L0.525879 56.5909Z" fill="white"/>
</g>
<defs>
<clipPath id="clip0_112_16">
<rect width="244" height="60" fill="white"/>
</clipPath>
</defs>
</svg>
